<?xml version="1.0" encoding="UTF-8" standalone="no"?>
<!-- Created with Inkscape (http://www.inkscape.org/) -->

<svg
   width="48"
   height="48"
   viewBox="0 0 48 48"
   version="1.1"
   id="svg1"
   inkscape:version="1.3.2 (091e20e, 2023-11-25, custom)"
   sodipodi:docname="icon.svg"
   xmlns:inkscape="http://www.inkscape.org/namespaces/inkscape"
   xmlns:sodipodi="http://sodipodi.sourceforge.net/DTD/sodipodi-0.dtd"
   xmlns="http://www.w3.org/2000/svg"
   xmlns:svg="http://www.w3.org/2000/svg">
  <sodipodi:namedview
     id="namedview1"
     pagecolor="#262626"
     bordercolor="#000000"
     borderopacity="0.25"
     inkscape:showpageshadow="2"
     inkscape:pageopacity="0.0"
     inkscape:pagecheckerboard="0"
     inkscape:deskcolor="#d1d1d1"
     inkscape:document-units="px"
     inkscape:zoom="17.279922"
     inkscape:cx="17.708413"
     inkscape:cy="27.343873"
     inkscape:window-width="2560"
     inkscape:window-height="1369"
     inkscape:window-x="1912"
     inkscape:window-y="-8"
     inkscape:window-maximized="1"
     inkscape:current-layer="text1"
     inkscape:export-bgcolor="#07070700" />
  <defs
     id="defs1" />
  <g
     inkscape:groupmode="layer"
     id="layer2"
     inkscape:label="Layer 2">
    <rect
       style="fill:#1a1a1a"
       id="rect1"
       width="49.42152"
       height="50.289577"
       x="-0.81018883"
       y="-0.86805946" />
  </g>
  <g
     inkscape:label="Layer 1"
     inkscape:groupmode="layer"
     id="layer1">
    <g
       id="text1"
       style="font-size:17.5052px;fill:#ff0000;stroke-width:1.00992"
       aria-label="Clone&#10;Tato">
      <path
         style="fill:#e6e6e6"
         d="m 7.585302,6.2112311 q -2.0130979,0 -3.1684411,1.3479004 -1.1553431,1.3479003 -1.1553431,3.6935975 0,2.328191 1.0678171,3.693597 1.0853224,1.3479 3.2384619,1.3479 0.8052392,0 1.5404576,-0.140042 0.7352183,-0.140041 1.4529316,-0.350104 v 1.365406 Q 9.8609779,17.432064 9.1082544,17.5546 8.373036,17.677137 7.3402292,17.677137 q -1.9080667,0 -3.1859463,-0.787734 Q 2.8764034,16.101669 2.228711,14.648737 1.5985238,13.195806 1.5985238,11.235223 q 0,-1.8905612 0.6827028,-3.3259876 0.700208,-1.4529315 2.0481083,-2.2581707 1.3479004,-0.8227444 3.2734723,-0.8227444 1.9780876,0 3.4485248,0.7352184 L 10.421144,6.8939339 Q 9.8434727,6.6313559 9.1257596,6.4212935 8.4255516,6.2112311 7.585302,6.2112311 Z m 7.03709,11.2908539 H 13.081934 V 4.1981332 h 1.540458 z m 11.133296,-4.708899 q 0,2.328192 -1.190353,3.606071 -1.172849,1.27788 -3.185947,1.27788 -1.242869,0 -2.22316,-0.560167 -0.962786,-0.577671 -1.522952,-1.662994 -0.560167,-1.102827 -0.560167,-2.66079 0,-2.328191 1.155343,-3.5885658 1.172849,-1.2603744 3.203452,-1.2603744 1.260374,0 2.240665,0.5776716 0.980292,0.5601664 1.522953,1.6454886 0.560166,1.067817 0.560166,2.62578 z m -7.089606,0 q 0,1.662994 0.647693,2.643285 0.665197,0.962786 2.100624,0.962786 1.417921,0 2.083118,-0.962786 0.665198,-0.980291 0.665198,-2.643285 0,-1.662994 -0.665198,-2.608275 -0.665197,-0.9452804 -2.100624,-0.9452804 -1.435426,0 -2.083118,0.9452804 -0.647693,0.945281 -0.647693,2.608275 z M 32.705244,7.9442458 q 1.680499,0 2.538254,0.8227444 0.857754,0.8227444 0.857754,2.6257798 v 6.109315 H 34.5783 v -6.004284 q 0,-2.2581704 -2.100624,-2.2581704 -1.557963,0 -2.153139,0.8752604 -0.595177,0.87526 -0.595177,2.520748 v 4.866446 H 28.188902 V 8.1192978 h 1.24287 l 0.227567,1.2778796 h 0.08753 Q 30.202,8.661959 31.007239,8.311855 31.812479,7.9442458 32.705244,7.9442458 Z m 9.925449,0 q 1.190354,0 2.065614,0.525156 0.87526,0.525156 1.330395,1.487942 0.47264,0.9452812 0.47264,2.2231602 v 0.927776 h -6.424408 q 0.03501,1.592973 0.805239,2.433222 0.787734,0.822745 2.18815,0.822745 0.892765,0 1.575468,-0.157547 0.700208,-0.175052 1.435426,-0.490146 v 1.347901 q -0.717713,0.315093 -1.417921,0.455135 -0.700208,0.157547 -1.662994,0.157547 -1.3479,0 -2.363202,-0.542661 -1.015301,-0.542662 -1.592973,-1.610479 -0.560166,-1.067817 -0.560166,-2.643285 0,-1.540457 0.507651,-2.643285 0.525156,-1.1028276 1.452931,-1.6980044 0.945281,-0.5951768 2.18815,-0.5951768 z m -0.0175,1.2603744 q -1.102828,0 -1.75052,0.7177132 -0.630187,0.7002076 -0.752724,1.9605826 h 4.77892 Q 44.871359,10.692562 44.328697,9.9573438 43.786036,9.2046202 42.613188,9.2046202 Z"
         id="path1" />
      <path
         style="fill:#e6e6e6"
         d="M 6.1848861,39.383584 H 4.6094181 V 28.267782 H 0.70575864 v -1.38291 H 10.07104 v 1.38291 H 6.1848861 Z M 13.904676,29.84325 q 1.715509,0 2.538254,0.752724 0.822744,0.752723 0.822744,2.398212 v 6.389398 h -1.120333 l -0.297588,-1.330395 h -0.07002 q -0.612682,0.770229 -1.295384,1.137838 -0.682703,0.367609 -1.855552,0.367609 -1.277879,0 -2.118129,-0.665198 -0.8402493,-0.682702 -0.8402493,-2.118129 0,-1.400416 1.1028273,-2.153139 1.102828,-0.770229 3.396009,-0.84025 l 1.592973,-0.05251 v -0.560167 q 0,-1.172848 -0.507651,-1.627983 -0.50765,-0.455136 -1.435426,-0.455136 -0.735218,0 -1.400416,0.227568 -0.665198,0.210062 -1.242869,0.490146 L 10.701224,30.64849 q 0.612682,-0.332599 1.452932,-0.560167 0.84025,-0.245073 1.75052,-0.245073 z m 1.838046,4.953972 -1.382911,0.05251 q -1.75052,0.07002 -2.433223,0.560167 -0.665197,0.490145 -0.665197,1.382911 0,0.787733 0.47264,1.155343 0.490146,0.367609 1.242869,0.367609 1.172849,0 1.960583,-0.647693 0.805239,-0.665197 0.805239,-2.030603 z m 7.562262,3.50104 q 0.350104,0 0.717713,-0.05252 0.367609,-0.05252 0.595177,-0.140042 v 1.172849 q -0.245073,0.122536 -0.700208,0.192557 -0.455135,0.08753 -0.87526,0.08753 -0.735219,0 -1.365406,-0.245073 -0.612682,-0.262578 -0.997796,-0.892765 -0.385114,-0.630187 -0.385114,-1.768025 v -5.461622 h -1.330396 v -0.735219 l 1.347901,-0.612682 0.612682,-1.995592 h 0.91027 v 2.153139 h 2.713306 v 1.190354 h -2.713306 v 5.426612 q 0,0.857754 0.40262,1.277879 0.420124,0.40262 1.067817,0.40262 z m 11.34337,-3.623577 q 0,2.328192 -1.190354,3.606071 -1.172848,1.27788 -3.185946,1.27788 -1.242869,0 -2.22316,-0.560166 -0.962786,-0.577672 -1.522953,-1.662994 -0.560166,-1.102828 -0.560166,-2.660791 0,-2.328191 1.155343,-3.588566 1.172849,-1.260374 3.203452,-1.260374 1.260374,0 2.240665,0.577672 0.980291,0.560166 1.522953,1.645488 0.560166,1.067818 0.560166,2.62578 z m -7.089606,0 q 0,1.662994 0.647693,2.643285 0.665197,0.962786 2.100623,0.962786 1.417922,0 2.083119,-0.962786 0.665198,-0.980291 0.665198,-2.643285 0,-1.662994 -0.665198,-2.608274 -0.665197,-0.945281 -2.100624,-0.945281 -1.435426,0 -2.083118,0.945281 -0.647693,0.94528 -0.647693,2.608274 z"
         id="path2" />
    </g>
  </g>
</svg>
